<mxfile host="app.diagrams.net" modified="2020-10-01T12:59:38.719Z" agent="5.0 (Macintosh; Intel Mac OS X 10_15_6) AppleWebKit/537.36 (KHTML, like Gecko) Chrome/85.0.4183.121 Safari/537.36" etag="SaBeC8XeSX9vIpQKXeIf" version="13.7.7" type="github">
  <diagram id="0B93aj8IbED3E-G-EEJr" name="Page-1">
    <mxGraphModel dx="1289" dy="715" grid="1" gridSize="10" guides="1" tooltips="1" connect="1" arrows="1" fold="1" page="1" pageScale="1" pageWidth="827" pageHeight="1169" math="0" shadow="0">
      <root>
        <mxCell id="0" />
        <mxCell id="1" parent="0" />
        <mxCell id="QlK3DpjFUy1bCY43-cMU-1" value="CUSTOMER&lt;br&gt;&lt;u style=&quot;font-weight: bold&quot;&gt;Customer ID&lt;/u&gt;&lt;br&gt;Cust Name&lt;br&gt;Cust Address" style="rounded=0;whiteSpace=wrap;html=1;" vertex="1" parent="1">
          <mxGeometry x="200" y="90" width="150" height="90" as="geometry" />
        </mxCell>
        <mxCell id="QlK3DpjFUy1bCY43-cMU-2" value="" style="fontSize=12;html=1;endArrow=ERzeroToMany;startArrow=ERmandOne;exitX=0.5;exitY=1;exitDx=0;exitDy=0;endSize=10;startSize=10;entryX=0.5;entryY=0;entryDx=0;entryDy=0;" edge="1" parent="1" source="QlK3DpjFUy1bCY43-cMU-1" target="QlK3DpjFUy1bCY43-cMU-3">
          <mxGeometry width="100" height="100" relative="1" as="geometry">
            <mxPoint x="180" y="220" as="sourcePoint" />
            <mxPoint x="172" y="350" as="targetPoint" />
          </mxGeometry>
        </mxCell>
        <mxCell id="QlK3DpjFUy1bCY43-cMU-3" value="CARD ACCOUNT&lt;br&gt;&lt;b&gt;&lt;u&gt;Account ID&lt;br&gt;&lt;/u&gt;&lt;/b&gt;Exp Date&lt;br&gt;&lt;b&gt;Card Type&lt;/b&gt;" style="rounded=0;whiteSpace=wrap;html=1;" vertex="1" parent="1">
          <mxGeometry x="205" y="350" width="140" height="110" as="geometry" />
        </mxCell>
        <mxCell id="QlK3DpjFUy1bCY43-cMU-6" value="&lt;font style=&quot;font-size: 14px&quot;&gt;Holds&lt;/font&gt;" style="text;html=1;strokeColor=none;fillColor=none;align=center;verticalAlign=middle;whiteSpace=wrap;rounded=0;" vertex="1" parent="1">
          <mxGeometry x="280" y="240" width="40" height="20" as="geometry" />
        </mxCell>
        <mxCell id="QlK3DpjFUy1bCY43-cMU-8" value="" style="endArrow=none;html=1;exitX=0.5;exitY=0;exitDx=0;exitDy=0;" edge="1" parent="1" source="QlK3DpjFUy1bCY43-cMU-9">
          <mxGeometry width="50" height="50" relative="1" as="geometry">
            <mxPoint x="275" y="520" as="sourcePoint" />
            <mxPoint x="275" y="460" as="targetPoint" />
          </mxGeometry>
        </mxCell>
        <mxCell id="QlK3DpjFUy1bCY43-cMU-9" value="d" style="ellipse;whiteSpace=wrap;html=1;aspect=fixed;" vertex="1" parent="1">
          <mxGeometry x="240" y="550" width="70" height="70" as="geometry" />
        </mxCell>
        <mxCell id="QlK3DpjFUy1bCY43-cMU-11" value="" style="endArrow=none;html=1;entryX=0;entryY=1;entryDx=0;entryDy=0;" edge="1" parent="1" target="QlK3DpjFUy1bCY43-cMU-9">
          <mxGeometry width="50" height="50" relative="1" as="geometry">
            <mxPoint x="230" y="660" as="sourcePoint" />
            <mxPoint x="270" y="620" as="targetPoint" />
            <Array as="points" />
          </mxGeometry>
        </mxCell>
        <mxCell id="QlK3DpjFUy1bCY43-cMU-13" value="" style="endArrow=none;html=1;entryX=1;entryY=1;entryDx=0;entryDy=0;exitX=0.25;exitY=0;exitDx=0;exitDy=0;" edge="1" parent="1" source="QlK3DpjFUy1bCY43-cMU-15" target="QlK3DpjFUy1bCY43-cMU-9">
          <mxGeometry width="50" height="50" relative="1" as="geometry">
            <mxPoint x="310" y="670" as="sourcePoint" />
            <mxPoint x="290" y="620" as="targetPoint" />
            <Array as="points">
              <mxPoint x="310" y="650" />
            </Array>
          </mxGeometry>
        </mxCell>
        <mxCell id="QlK3DpjFUy1bCY43-cMU-14" value="Debit Card&lt;br&gt;Bank No" style="rounded=0;whiteSpace=wrap;html=1;" vertex="1" parent="1">
          <mxGeometry x="190" y="660" width="70" height="60" as="geometry" />
        </mxCell>
        <mxCell id="QlK3DpjFUy1bCY43-cMU-15" value="Credit Card&lt;br&gt;Cur Bal" style="rounded=0;whiteSpace=wrap;html=1;" vertex="1" parent="1">
          <mxGeometry x="290" y="660" width="90" height="60" as="geometry" />
        </mxCell>
        <mxCell id="QlK3DpjFUy1bCY43-cMU-16" value="Card type" style="text;html=1;strokeColor=none;fillColor=none;align=center;verticalAlign=middle;whiteSpace=wrap;rounded=0;" vertex="1" parent="1">
          <mxGeometry x="270" y="500" width="80" height="20" as="geometry" />
        </mxCell>
        <mxCell id="QlK3DpjFUy1bCY43-cMU-19" value="" style="fontSize=12;html=1;endArrow=ERzeroToMany;startArrow=ERmandOne;exitX=1;exitY=0.5;exitDx=0;exitDy=0;endSize=10;startSize=10;" edge="1" parent="1" source="QlK3DpjFUy1bCY43-cMU-9">
          <mxGeometry width="100" height="100" relative="1" as="geometry">
            <mxPoint x="340" y="590" as="sourcePoint" />
            <mxPoint x="460" y="585" as="targetPoint" />
          </mxGeometry>
        </mxCell>
        <mxCell id="QlK3DpjFUy1bCY43-cMU-20" value="CHARGES&amp;nbsp;&lt;br&gt;Change Date&lt;br&gt;Charge Time&lt;br&gt;Amount" style="rounded=0;whiteSpace=wrap;html=1;" vertex="1" parent="1">
          <mxGeometry x="460" y="560" width="120" height="60" as="geometry" />
        </mxCell>
        <mxCell id="QlK3DpjFUy1bCY43-cMU-21" value="" style="fontSize=12;html=1;endArrow=ERzeroToMany;startArrow=ERmandOne;endSize=10;startSize=10;entryX=0.5;entryY=0;entryDx=0;entryDy=0;" edge="1" parent="1" target="QlK3DpjFUy1bCY43-cMU-20">
          <mxGeometry width="100" height="100" relative="1" as="geometry">
            <mxPoint x="520" y="430" as="sourcePoint" />
            <mxPoint x="650" y="440" as="targetPoint" />
          </mxGeometry>
        </mxCell>
        <mxCell id="QlK3DpjFUy1bCY43-cMU-22" value="MERCHANT&lt;br&gt;&lt;u style=&quot;font-weight: bold&quot;&gt;Merch ID&lt;/u&gt;&lt;br&gt;Merch Addr" style="rounded=0;whiteSpace=wrap;html=1;" vertex="1" parent="1">
          <mxGeometry x="460" y="370" width="120" height="60" as="geometry" />
        </mxCell>
      </root>
    </mxGraphModel>
  </diagram>
</mxfile>
